<svg width="444" height="150" viewBox="0 0 444 150" fill="none" xmlns="http://www.w3.org/2000/svg">
<path d="M109.507 113L85.6006 76.4375L76.0498 89.5039V113H60.8154V27.1602H76.0498V68.2344L105.229 27.1602H122.573L95.6787 64.6602L127.729 113H109.507Z" fill="#1976D2"/>
<path d="M27.9053 113L50.8154 77.5508C53.1201 77.5117 56.3428 77.375 60.4834 77.1406V113H76.3037V27.1602C75.4443 27.1602 72.1436 27.0234 66.4014 26.75C60.6592 26.4375 56.0303 26.2812 52.5146 26.2812C30.7178 26.2812 19.8193 34.7188 19.8193 51.5938C19.8193 56.6719 21.3232 61.3008 24.3311 65.4805C27.3389 69.6602 31.1279 72.6094 35.6982 74.3281L10.3271 113H27.9053ZM60.4834 40.4023V64.25C57.6709 64.4844 55.5225 64.6016 54.0381 64.6016C47.6709 64.6016 43.0225 63.7031 40.0928 61.9062C37.124 60.1094 35.6396 56.6133 35.6396 51.418C35.6396 47.1992 37.2217 44.25 40.3857 42.5703C43.5498 40.8906 48.5303 40.0508 55.3271 40.0508C56.9678 40.0508 58.6865 40.168 60.4834 40.4023Z" fill="#1976D2"/>
<path d="M173.35 66.2H176.185C177.325 66.2 178.27 66.05 179.02 65.75C179.77 65.42 180.415 64.91 180.955 64.22L198.91 41.495C199.66 40.535 200.44 39.875 201.25 39.515C202.09 39.125 203.14 38.93 204.4 38.93H214.84L192.925 65.975C191.635 67.625 190.3 68.795 188.92 69.485C189.91 69.845 190.795 70.355 191.575 71.015C192.385 71.645 193.15 72.485 193.87 73.535L216.46 104H205.795C204.355 104 203.275 103.805 202.555 103.415C201.865 102.995 201.28 102.395 200.8 101.615L182.395 77.585C181.825 76.775 181.165 76.205 180.415 75.875C179.665 75.545 178.585 75.38 177.175 75.38H173.35V104H161.245V38.93H173.35V66.2ZM257.324 79.43L249.404 57.785C249.014 56.825 248.609 55.685 248.189 54.365C247.769 53.045 247.349 51.62 246.929 50.09C246.539 51.62 246.134 53.06 245.714 54.41C245.294 55.73 244.889 56.885 244.499 57.875L236.624 79.43H257.324ZM278.699 104H269.339C268.289 104 267.434 103.745 266.774 103.235C266.114 102.695 265.619 102.035 265.289 101.255L260.429 87.98H233.474L228.614 101.255C228.374 101.945 227.909 102.575 227.219 103.145C226.529 103.715 225.674 104 224.654 104H215.204L240.809 38.93H253.139L278.699 104ZM306.612 78.8V104H294.552V78.8L270.837 38.93H281.502C282.552 38.93 283.377 39.185 283.977 39.695C284.607 40.205 285.132 40.85 285.552 41.63L297.432 63.365C298.122 64.655 298.722 65.87 299.232 67.01C299.772 68.15 300.252 69.29 300.672 70.43C301.062 69.29 301.512 68.15 302.022 67.01C302.532 65.87 303.117 64.655 303.777 63.365L315.612 41.63C315.942 40.97 316.437 40.355 317.097 39.785C317.757 39.215 318.597 38.93 319.617 38.93H330.327L306.612 78.8ZM364.639 79.43L356.719 57.785C356.329 56.825 355.924 55.685 355.504 54.365C355.084 53.045 354.664 51.62 354.244 50.09C353.854 51.62 353.449 53.06 353.029 54.41C352.609 55.73 352.204 56.885 351.814 57.875L343.939 79.43H364.639ZM386.014 104H376.654C375.604 104 374.749 103.745 374.089 103.235C373.429 102.695 372.934 102.035 372.604 101.255L367.744 87.98H340.789L335.929 101.255C335.689 101.945 335.224 102.575 334.534 103.145C333.844 103.715 332.989 104 331.969 104H322.519L348.124 38.93H360.454L386.014 104ZM412.414 69.89C414.694 69.89 416.674 69.605 418.354 69.035C420.064 68.465 421.459 67.685 422.539 66.695C423.649 65.675 424.474 64.475 425.014 63.095C425.554 61.715 425.824 60.2 425.824 58.55C425.824 55.25 424.729 52.715 422.539 50.945C420.379 49.175 417.064 48.29 412.594 48.29H404.854V69.89H412.414ZM443.554 104H432.619C430.549 104 429.049 103.19 428.119 101.57L414.439 80.735C413.929 79.955 413.359 79.4 412.729 79.07C412.129 78.74 411.229 78.575 410.029 78.575H404.854V104H392.749V38.93H412.594C417.004 38.93 420.784 39.395 423.934 40.325C427.114 41.225 429.709 42.5 431.719 44.15C433.759 45.8 435.259 47.78 436.219 50.09C437.179 52.37 437.659 54.89 437.659 57.65C437.659 59.84 437.329 61.91 436.669 63.86C436.039 65.81 435.109 67.58 433.879 69.17C432.679 70.76 431.179 72.155 429.379 73.355C427.609 74.555 425.584 75.5 423.304 76.19C424.084 76.64 424.804 77.18 425.464 77.81C426.124 78.41 426.724 79.13 427.264 79.97L443.554 104Z" fill="#1976D2"/>
<line x1="155.967" y1="29" x2="442.001" y2="29" stroke="#1976D2" stroke-width="5"/>
<line x1="157.968" y1="112.5" x2="443.998" y2="112.5" stroke="#1976D2" stroke-width="5"/>
</svg>
