<svg width="290" height="244" viewBox="0 0 290 244" fill="none" xmlns="http://www.w3.org/2000/svg">
<path d="M185.851 141L155.968 95.2969L144.029 111.63V141H124.986V33.7002H144.029V85.043L180.504 33.7002H202.184L168.565 80.5752L208.629 141H185.851Z" fill="#013919"/>
<path d="M83.5156 141L112.153 96.6885C115.034 96.6396 119.062 96.4688 124.238 96.1758V141H144.014V33.7002C142.939 33.7002 138.813 33.5293 131.636 33.1875C124.458 32.7969 118.672 32.6016 114.277 32.6016C87.0312 32.6016 73.4082 43.1484 73.4082 64.2422C73.4082 70.5898 75.2881 76.376 79.0479 81.6006C82.8076 86.8252 87.5439 90.5117 93.2568 92.6602L61.543 141H83.5156ZM124.238 50.2529V80.0625C120.723 80.3555 118.037 80.502 116.182 80.502C108.223 80.502 102.412 79.3789 98.75 77.1328C95.0391 74.8867 93.1836 70.5166 93.1836 64.0225C93.1836 58.749 95.1611 55.0625 99.1162 52.9629C103.071 50.8633 109.297 49.8135 117.793 49.8135C119.844 49.8135 121.992 49.96 124.238 50.2529Z" fill="#013919"/>
<path d="M19.35 187.2H22.185C23.325 187.2 24.27 187.05 25.02 186.75C25.77 186.42 26.415 185.91 26.955 185.22L44.91 162.495C45.66 161.535 46.44 160.875 47.25 160.515C48.09 160.125 49.14 159.93 50.4 159.93H60.84L38.925 186.975C37.635 188.625 36.3 189.795 34.92 190.485C35.91 190.845 36.795 191.355 37.575 192.015C38.385 192.645 39.15 193.485 39.87 194.535L62.46 225H51.795C50.355 225 49.275 224.805 48.555 224.415C47.865 223.995 47.28 223.395 46.8 222.615L28.395 198.585C27.825 197.775 27.165 197.205 26.415 196.875C25.665 196.545 24.585 196.38 23.175 196.38H19.35V225H7.245V159.93H19.35V187.2ZM103.324 200.43L95.4042 178.785C95.0142 177.825 94.6092 176.685 94.1892 175.365C93.7692 174.045 93.3492 172.62 92.9292 171.09C92.5392 172.62 92.1342 174.06 91.7142 175.41C91.2942 176.73 90.8892 177.885 90.4992 178.875L82.6242 200.43H103.324ZM124.699 225H115.339C114.289 225 113.434 224.745 112.774 224.235C112.114 223.695 111.619 223.035 111.289 222.255L106.429 208.98H79.4742L74.6142 222.255C74.3742 222.945 73.9092 223.575 73.2192 224.145C72.5292 224.715 71.6742 225 70.6542 225H61.2042L86.8092 159.93H99.1392L124.699 225ZM152.612 199.8V225H140.552V199.8L116.837 159.93H127.502C128.552 159.93 129.377 160.185 129.977 160.695C130.607 161.205 131.132 161.85 131.552 162.63L143.432 184.365C144.122 185.655 144.722 186.87 145.232 188.01C145.772 189.15 146.252 190.29 146.672 191.43C147.062 190.29 147.512 189.15 148.022 188.01C148.532 186.87 149.117 185.655 149.777 184.365L161.612 162.63C161.942 161.97 162.437 161.355 163.097 160.785C163.757 160.215 164.597 159.93 165.617 159.93H176.327L152.612 199.8ZM210.639 200.43L202.719 178.785C202.329 177.825 201.924 176.685 201.504 175.365C201.084 174.045 200.664 172.62 200.244 171.09C199.854 172.62 199.449 174.06 199.029 175.41C198.609 176.73 198.204 177.885 197.814 178.875L189.939 200.43H210.639ZM232.014 225H222.654C221.604 225 220.749 224.745 220.089 224.235C219.429 223.695 218.934 223.035 218.604 222.255L213.744 208.98H186.789L181.929 222.255C181.689 222.945 181.224 223.575 180.534 224.145C179.844 224.715 178.989 225 177.969 225H168.519L194.124 159.93H206.454L232.014 225ZM258.414 190.89C260.694 190.89 262.674 190.605 264.354 190.035C266.064 189.465 267.459 188.685 268.539 187.695C269.649 186.675 270.474 185.475 271.014 184.095C271.554 182.715 271.824 181.2 271.824 179.55C271.824 176.25 270.729 173.715 268.539 171.945C266.379 170.175 263.064 169.29 258.594 169.29H250.854V190.89H258.414ZM289.554 225H278.619C276.549 225 275.049 224.19 274.119 222.57L260.439 201.735C259.929 200.955 259.359 200.4 258.729 200.07C258.129 199.74 257.229 199.575 256.029 199.575H250.854V225H238.749V159.93H258.594C263.004 159.93 266.784 160.395 269.934 161.325C273.114 162.225 275.709 163.5 277.719 165.15C279.759 166.8 281.259 168.78 282.219 171.09C283.179 173.37 283.659 175.89 283.659 178.65C283.659 180.84 283.329 182.91 282.669 184.86C282.039 186.81 281.109 188.58 279.879 190.17C278.679 191.76 277.179 193.155 275.379 194.355C273.609 195.555 271.584 196.5 269.304 197.19C270.084 197.64 270.804 198.18 271.464 198.81C272.124 199.41 272.724 200.13 273.264 200.97L289.554 225Z" fill="#013919"/>
<line x1="1.9668" y1="150" x2="288.001" y2="150" stroke="#013919" stroke-width="5"/>
<line x1="3.96777" y1="233.5" x2="289.998" y2="233.5" stroke="#013919" stroke-width="5"/>
</svg>
