<svg width="164" height="150" viewBox="0 0 164 150" fill="none" xmlns="http://www.w3.org/2000/svg">
<path d="M109.507 113L85.6006 76.4375L76.0498 89.5039V113H60.8154V27.1602H76.0498V68.2344L105.229 27.1602H122.573L95.6787 64.6602L127.729 113H109.507Z" fill="#013919"/>
<path d="M27.9053 113L50.8154 77.5508C53.1201 77.5117 56.3428 77.375 60.4834 77.1406V113H76.3037V27.1602C75.4443 27.1602 72.1436 27.0234 66.4014 26.75C60.6592 26.4375 56.0303 26.2812 52.5146 26.2812C30.7178 26.2812 19.8193 34.7188 19.8193 51.5938C19.8193 56.6719 21.3232 61.3008 24.3311 65.4805C27.3389 69.6602 31.1279 72.6094 35.6982 74.3281L10.3271 113H27.9053ZM60.4834 40.4023V64.25C57.6709 64.4844 55.5225 64.6016 54.0381 64.6016C47.6709 64.6016 43.0225 63.7031 40.0928 61.9062C37.124 60.1094 35.6396 56.6133 35.6396 51.418C35.6396 47.1992 37.2217 44.25 40.3857 42.5703C43.5498 40.8906 48.5303 40.0508 55.3271 40.0508C56.9678 40.0508 58.6865 40.168 60.4834 40.4023Z" fill="#013919"/>
</svg>
